<svg width="52" height="52" viewBox="0 0 52 52" fill="none" xmlns="http://www.w3.org/2000/svg">
<path d="M25.9999 52C40.1979 52 52 40.2235 52 26C52 11.802 40.1725 0 25.9744 0C11.7509 0 0 11.802 0 26C0 40.2235 11.7764 52 25.9999 52ZM25.9999 47.6667C13.9685 47.6667 4.35869 38.0313 4.35869 26C4.35869 13.9941 13.9431 4.33335 25.9744 4.33335C37.9802 4.33335 47.641 13.9941 47.6667 26C47.6922 38.0313 38.0058 47.6667 25.9999 47.6667ZM16.6705 38.5921H35.3293C38.1842 38.5921 39.6116 37.1901 39.6116 34.3608V17.6647C39.6116 14.8353 38.1842 13.4333 35.3293 13.4333H16.6705C13.8156 13.4333 12.3882 14.8353 12.3882 17.6647V34.3608C12.3882 37.1901 13.8156 38.5921 16.6705 38.5921ZM16.4921 36.2725C15.3195 36.2725 14.7332 35.6863 14.7332 34.4882V21.5902C14.7332 20.3157 15.396 19.6784 16.594 19.6784H35.3547C36.5783 19.6784 37.2666 20.3157 37.2666 21.5902V34.4882C37.2666 35.6863 36.6548 36.2725 35.4567 36.2725H16.4921ZM23.247 24.8019H24.1901C24.7764 24.8019 24.9548 24.6236 24.9548 24.0628V23.0941C24.9548 22.5078 24.7764 22.3294 24.1901 22.3294H23.247C22.6607 22.3294 22.4822 22.5078 22.4822 23.0941V24.0628C22.4822 24.6236 22.6607 24.8019 23.247 24.8019ZM27.8097 24.8019H28.7529C29.3391 24.8019 29.5176 24.6236 29.5176 24.0628V23.0941C29.5176 22.5078 29.3391 22.3294 28.7529 22.3294H27.8097C27.1979 22.3294 27.0195 22.5078 27.0195 23.0941V24.0628C27.0195 24.6236 27.1979 24.8019 27.8097 24.8019ZM32.3214 24.8019H33.2646C33.8509 24.8019 34.0548 24.6236 34.0548 24.0628V23.0941C34.0548 22.5078 33.8509 22.3294 33.2646 22.3294H32.3214C31.7351 22.3294 31.5312 22.5078 31.5312 23.0941V24.0628C31.5312 24.6236 31.7351 24.8019 32.3214 24.8019ZM18.7097 29.2627H19.6529C20.2391 29.2627 20.443 29.0843 20.443 28.5235V27.5549C20.443 26.9686 20.2391 26.7902 19.6529 26.7902H18.7097C18.1234 26.7902 17.945 26.9686 17.945 27.5549V28.5235C17.945 29.0843 18.1234 29.2627 18.7097 29.2627ZM23.247 29.2627H24.1901C24.7764 29.2627 24.9548 29.0843 24.9548 28.5235V27.5549C24.9548 26.9686 24.7764 26.7902 24.1901 26.7902H23.247C22.6607 26.7902 22.4822 26.9686 22.4822 27.5549V28.5235C22.4822 29.0843 22.6607 29.2627 23.247 29.2627ZM27.8097 29.2627H28.7529C29.3391 29.2627 29.5176 29.0843 29.5176 28.5235V27.5549C29.5176 26.9686 29.3391 26.7902 28.7529 26.7902H27.8097C27.1979 26.7902 27.0195 26.9686 27.0195 27.5549V28.5235C27.0195 29.0843 27.1979 29.2627 27.8097 29.2627ZM32.3214 29.2627H33.2646C33.8509 29.2627 34.0548 29.0843 34.0548 28.5235V27.5549C34.0548 26.9686 33.8509 26.7902 33.2646 26.7902H32.3214C31.7351 26.7902 31.5312 26.9686 31.5312 27.5549V28.5235C31.5312 29.0843 31.7351 29.2627 32.3214 29.2627ZM18.7097 33.749H19.6529C20.2391 33.749 20.443 33.5451 20.443 32.9588V32.0156C20.443 31.4294 20.2391 31.2765 19.6529 31.2765H18.7097C18.1234 31.2765 17.945 31.4294 17.945 32.0156V32.9588C17.945 33.5451 18.1234 33.749 18.7097 33.749ZM23.247 33.749H24.1901C24.7764 33.749 24.9548 33.5451 24.9548 32.9588V32.0156C24.9548 31.4294 24.7764 31.2765 24.1901 31.2765H23.247C22.6607 31.2765 22.4822 31.4294 22.4822 32.0156V32.9588C22.4822 33.5451 22.6607 33.749 23.247 33.749ZM27.8097 33.749H28.7529C29.3391 33.749 29.5176 33.5451 29.5176 32.9588V32.0156C29.5176 31.4294 29.3391 31.2765 28.7529 31.2765H27.8097C27.1979 31.2765 27.0195 31.4294 27.0195 32.0156V32.9588C27.0195 33.5451 27.1979 33.749 27.8097 33.749Z" fill="black"/>
</svg>
