<svg width="39" height="48" viewBox="0 0 39 48" fill="none" xmlns="http://www.w3.org/2000/svg">
<path d="M19.3407 0C11.7191 0 4.7532 4.6823 4.7532 14.3056V19.6468C1.58432 20.0232 0 21.7879 0 25.129V42.4228C0 46.258 2.04879 47.9992 6.14638 47.9992H32.535C36.6326 47.9992 38.6814 46.258 38.6814 42.4228V25.129C38.6814 21.7879 37.097 20.0232 33.9282 19.6468V14.3056C33.9282 4.6823 26.9622 0 19.3407 0ZM9.15127 13.788C9.15127 7.22348 13.6859 3.62359 19.3407 3.62359C24.9681 3.62359 29.5301 7.22348 29.5301 13.788V19.5526H9.15127V13.788ZM32.3984 23.1055C33.6824 23.1055 34.2833 23.5761 34.2833 24.8702V42.658C34.2833 43.9757 33.6824 44.4698 32.3984 44.4698H6.28287C5.02629 44.4698 4.39806 43.9757 4.39806 42.658V24.8702C4.39806 23.5761 5.02629 23.1055 6.28287 23.1055H32.3984Z" fill="#4A4A4A"/>
</svg>
