<svg width="39" height="38" viewBox="0 0 39 38" fill="none" xmlns="http://www.w3.org/2000/svg">
<path d="M19.5111 19.0205C24.8242 19.0205 29.1551 14.6706 29.1551 9.37687C29.1551 4.12416 24.8689 0 19.5111 0C14.2203 0 9.86716 4.20628 9.86716 9.41793C9.88945 14.6912 14.2203 19.0205 19.5111 19.0205ZM19.5111 15.9223C16.2518 15.9223 13.4613 13.0496 13.4613 9.41793C13.4613 5.84775 16.2072 3.09831 19.5111 3.09831C22.8598 3.09831 25.561 5.80669 25.561 9.37687C25.561 13.0087 22.8152 15.9223 19.5111 15.9223ZM5.49169 38H33.5307C37.2365 38 39 36.9741 39 34.7171C39 29.3413 31.6331 21.5648 19.5111 21.5648C7.38925 21.5648 0 29.3413 0 34.7171C0 36.9741 1.76354 38 5.49169 38ZM4.42004 34.9018C3.83969 34.9018 3.59414 34.7581 3.59414 34.3272C3.59414 30.9623 9.26442 24.663 19.5111 24.663C29.7579 24.663 35.4059 30.9623 35.4059 34.3272C35.4059 34.7581 35.1826 34.9018 34.6022 34.9018H4.42004Z" fill="#4A4A4A"/>
</svg>
