<?xml version="1.0" standalone="no"?>
<svg xmlns:xlink="http://www.w3.org/1999/xlink" id="wave" style="transform:rotate(180deg); transition: 0.3s" viewBox="0 0 1440 490" version="1.1" xmlns="http://www.w3.org/2000/svg"><defs><linearGradient id="sw-gradient-0" x1="0" x2="0" y1="1" y2="0"><stop stop-color="rgba(89.463, 243, 62, 1)" offset="0%"/><stop stop-color="rgba(56.818, 125.543, 55.684, 1)" offset="100%"/></linearGradient></defs><path style="transform:translate(0, 0px); opacity:1" fill="url(#sw-gradient-0)" d="M0,294L21.8,294C43.6,294,87,294,131,302.2C174.5,310,218,327,262,302.2C305.5,278,349,212,393,163.3C436.4,114,480,82,524,81.7C567.3,82,611,114,655,163.3C698.2,212,742,278,785,318.5C829.1,359,873,376,916,392C960,408,1004,425,1047,375.7C1090.9,327,1135,212,1178,187.8C1221.8,163,1265,229,1309,277.7C1352.7,327,1396,359,1440,367.5C1483.6,376,1527,359,1571,318.5C1614.5,278,1658,212,1702,220.5C1745.5,229,1789,310,1833,285.8C1876.4,261,1920,131,1964,130.7C2007.3,131,2051,261,2095,277.7C2138.2,294,2182,196,2225,130.7C2269.1,65,2313,33,2356,49C2400,65,2444,131,2487,147C2530.9,163,2575,131,2618,155.2C2661.8,180,2705,261,2749,302.2C2792.7,343,2836,343,2880,326.7C2923.6,310,2967,278,3011,261.3C3054.5,245,3098,245,3120,245L3141.8,245L3141.8,490L3120,490C3098.2,490,3055,490,3011,490C2967.3,490,2924,490,2880,490C2836.4,490,2793,490,2749,490C2705.5,490,2662,490,2618,490C2574.5,490,2531,490,2487,490C2443.6,490,2400,490,2356,490C2312.7,490,2269,490,2225,490C2181.8,490,2138,490,2095,490C2050.9,490,2007,490,1964,490C1920,490,1876,490,1833,490C1789.1,490,1745,490,1702,490C1658.2,490,1615,490,1571,490C1527.3,490,1484,490,1440,490C1396.4,490,1353,490,1309,490C1265.5,490,1222,490,1178,490C1134.5,490,1091,490,1047,490C1003.6,490,960,490,916,490C872.7,490,829,490,785,490C741.8,490,698,490,655,490C610.9,490,567,490,524,490C480,490,436,490,393,490C349.1,490,305,490,262,490C218.2,490,175,490,131,490C87.3,490,44,490,22,490L0,490Z"/></svg>