<svg id="visual" viewBox="0 0 900 600" width="900" height="600" xmlns="http://www.w3.org/2000/svg" xmlns:xlink="http://www.w3.org/1999/xlink" version="1.1"><path d="M0 436L21.5 428.2C43 420.3 86 404.7 128.8 389C171.7 373.3 214.3 357.7 257.2 350.3C300 343 343 344 385.8 359C428.7 374 471.3 403 514.2 409.2C557 415.3 600 398.7 642.8 393C685.7 387.3 728.3 392.7 771.2 389.3C814 386 857 374 878.5 368L900 362L900 601L878.5 601C857 601 814 601 771.2 601C728.3 601 685.7 601 642.8 601C600 601 557 601 514.2 601C471.3 601 428.7 601 385.8 601C343 601 300 601 257.2 601C214.3 601 171.7 601 128.8 601C86 601 43 601 21.5 601L0 601Z" fill="#1875ba"></path><path d="M0 471L21.5 470.2C43 469.3 86 467.7 128.8 463.8C171.7 460 214.3 454 257.2 449C300 444 343 440 385.8 432.7C428.7 425.3 471.3 414.7 514.2 410C557 405.3 600 406.7 642.8 415.7C685.7 424.7 728.3 441.3 771.2 440.2C814 439 857 420 878.5 410.5L900 401L900 601L878.5 601C857 601 814 601 771.2 601C728.3 601 685.7 601 642.8 601C600 601 557 601 514.2 601C471.3 601 428.7 601 385.8 601C343 601 300 601 257.2 601C214.3 601 171.7 601 128.8 601C86 601 43 601 21.5 601L0 601Z" fill="#0068c0"></path><path d="M0 476L21.5 472.7C43 469.3 86 462.7 128.8 452.7C171.7 442.7 214.3 429.3 257.2 425C300 420.7 343 425.3 385.8 429.5C428.7 433.7 471.3 437.3 514.2 442.7C557 448 600 455 642.8 451.5C685.7 448 728.3 434 771.2 434.5C814 435 857 450 878.5 457.5L900 465L900 601L878.5 601C857 601 814 601 771.2 601C728.3 601 685.7 601 642.8 601C600 601 557 601 514.2 601C471.3 601 428.7 601 385.8 601C343 601 300 601 257.2 601C214.3 601 171.7 601 128.8 601C86 601 43 601 21.5 601L0 601Z" fill="#005ac3"></path><path d="M0 512L21.5 507.8C43 503.7 86 495.3 128.8 495.2C171.7 495 214.3 503 257.2 510C300 517 343 523 385.8 513.8C428.7 504.7 471.3 480.3 514.2 477.3C557 474.3 600 492.7 642.8 502.8C685.7 513 728.3 515 771.2 515.8C814 516.7 857 516.3 878.5 516.2L900 516L900 601L878.5 601C857 601 814 601 771.2 601C728.3 601 685.7 601 642.8 601C600 601 557 601 514.2 601C471.3 601 428.7 601 385.8 601C343 601 300 601 257.2 601C214.3 601 171.7 601 128.8 601C86 601 43 601 21.5 601L0 601Z" fill="#0049c2"></path><path d="M0 513L21.5 510.3C43 507.7 86 502.3 128.8 502.7C171.7 503 214.3 509 257.2 514C300 519 343 523 385.8 529.8C428.7 536.7 471.3 546.3 514.2 543.3C557 540.3 600 524.7 642.8 515.3C685.7 506 728.3 503 771.2 502.2C814 501.3 857 502.7 878.5 503.3L900 504L900 601L878.5 601C857 601 814 601 771.2 601C728.3 601 685.7 601 642.8 601C600 601 557 601 514.2 601C471.3 601 428.7 601 385.8 601C343 601 300 601 257.2 601C214.3 601 171.7 601 128.8 601C86 601 43 601 21.5 601L0 601Z" fill="#0035bf"></path><path d="M0 578L21.5 573.2C43 568.3 86 558.7 128.8 554.5C171.7 550.3 214.3 551.7 257.2 553.3C300 555 343 557 385.8 558.5C428.7 560 471.3 561 514.2 559.5C557 558 600 554 642.8 551.7C685.7 549.3 728.3 548.7 771.2 547.3C814 546 857 544 878.5 543L900 542L900 601L878.5 601C857 601 814 601 771.2 601C728.3 601 685.7 601 642.8 601C600 601 557 601 514.2 601C471.3 601 428.7 601 385.8 601C343 601 300 601 257.2 601C214.3 601 171.7 601 128.8 601C86 601 43 601 21.5 601L0 601Z" fill="#1d18b9"></path></svg>