<svg id="visual" viewBox="0 0 900 600" width="900" height="600" xmlns="http://www.w3.org/2000/svg" xmlns:xlink="http://www.w3.org/1999/xlink" version="1.1"><path d="M0 374L21.5 368.3C43 362.7 86 351.3 128.8 356.8C171.7 362.3 214.3 384.7 257.2 394.7C300 404.7 343 402.3 385.8 409.5C428.7 416.7 471.3 433.3 514.2 424C557 414.7 600 379.3 642.8 363.5C685.7 347.7 728.3 351.3 771.2 359.8C814 368.3 857 381.7 878.5 388.3L900 395L900 601L878.5 601C857 601 814 601 771.2 601C728.3 601 685.7 601 642.8 601C600 601 557 601 514.2 601C471.3 601 428.7 601 385.8 601C343 601 300 601 257.2 601C214.3 601 171.7 601 128.8 601C86 601 43 601 21.5 601L0 601Z" fill="#1875ba"></path><path d="M0 439L21.5 441.7C43 444.3 86 449.7 128.8 440.5C171.7 431.3 214.3 407.7 257.2 398.3C300 389 343 394 385.8 405.2C428.7 416.3 471.3 433.7 514.2 435C557 436.3 600 421.7 642.8 413.3C685.7 405 728.3 403 771.2 405.7C814 408.3 857 415.7 878.5 419.3L900 423L900 601L878.5 601C857 601 814 601 771.2 601C728.3 601 685.7 601 642.8 601C600 601 557 601 514.2 601C471.3 601 428.7 601 385.8 601C343 601 300 601 257.2 601C214.3 601 171.7 601 128.8 601C86 601 43 601 21.5 601L0 601Z" fill="#0068c0"></path><path d="M0 472L21.5 473C43 474 86 476 128.8 469.8C171.7 463.7 214.3 449.3 257.2 449.3C300 449.3 343 463.7 385.8 462.7C428.7 461.7 471.3 445.3 514.2 443.5C557 441.7 600 454.3 642.8 456.8C685.7 459.3 728.3 451.7 771.2 443.3C814 435 857 426 878.5 421.5L900 417L900 601L878.5 601C857 601 814 601 771.2 601C728.3 601 685.7 601 642.8 601C600 601 557 601 514.2 601C471.3 601 428.7 601 385.8 601C343 601 300 601 257.2 601C214.3 601 171.7 601 128.8 601C86 601 43 601 21.5 601L0 601Z" fill="#005ac3"></path><path d="M0 478L21.5 474.5C43 471 86 464 128.8 460C171.7 456 214.3 455 257.2 464.3C300 473.7 343 493.3 385.8 494.7C428.7 496 471.3 479 514.2 481.8C557 484.7 600 507.3 642.8 508.7C685.7 510 728.3 490 771.2 488.3C814 486.7 857 503.3 878.5 511.7L900 520L900 601L878.5 601C857 601 814 601 771.2 601C728.3 601 685.7 601 642.8 601C600 601 557 601 514.2 601C471.3 601 428.7 601 385.8 601C343 601 300 601 257.2 601C214.3 601 171.7 601 128.8 601C86 601 43 601 21.5 601L0 601Z" fill="#0049c2"></path><path d="M0 501L21.5 508.3C43 515.7 86 530.3 128.8 538C171.7 545.7 214.3 546.3 257.2 544.8C300 543.3 343 539.7 385.8 540.7C428.7 541.7 471.3 547.3 514.2 550.3C557 553.3 600 553.7 642.8 550C685.7 546.3 728.3 538.7 771.2 538.3C814 538 857 545 878.5 548.5L900 552L900 601L878.5 601C857 601 814 601 771.2 601C728.3 601 685.7 601 642.8 601C600 601 557 601 514.2 601C471.3 601 428.7 601 385.8 601C343 601 300 601 257.2 601C214.3 601 171.7 601 128.8 601C86 601 43 601 21.5 601L0 601Z" fill="#0035bf"></path><path d="M0 549L21.5 552C43 555 86 561 128.8 566.2C171.7 571.3 214.3 575.7 257.2 572.5C300 569.3 343 558.7 385.8 558.3C428.7 558 471.3 568 514.2 570.2C557 572.3 600 566.7 642.8 562.3C685.7 558 728.3 555 771.2 558.5C814 562 857 572 878.5 577L900 582L900 601L878.5 601C857 601 814 601 771.2 601C728.3 601 685.7 601 642.8 601C600 601 557 601 514.2 601C471.3 601 428.7 601 385.8 601C343 601 300 601 257.2 601C214.3 601 171.7 601 128.8 601C86 601 43 601 21.5 601L0 601Z" fill="#1d18b9"></path></svg>